# Blender v3.0.1 OBJ File: 'FatalProject.blend'
# www.blender.org
mtllib Katana.mtl
o katana_10x9x89
v -0.061701 0.082328 -0.915017
v -0.061701 0.102774 -0.915017
v -0.061701 0.102774 -0.729915
v -0.061701 0.082328 -0.729915
v -0.041074 0.082328 -0.812243
v -0.041074 0.082328 0.318637
v 0.020627 0.082328 0.318637
v 0.020627 0.082328 -0.812243
v 0.020627 0.082328 -0.380337
v 0.041074 0.082328 0.318637
v 0.041074 0.082328 -0.380337
v -0.061701 0.082328 -0.894390
v -0.061701 0.082328 -0.812243
v 0.000000 0.082328 -0.812243
v 0.000000 0.082328 -0.894390
v -0.041074 0.082328 -0.729915
v -0.020627 0.082328 -0.894390
v -0.020627 0.082328 -0.915017
v -0.041074 0.102774 -0.812243
v 0.020627 0.102774 0.318637
v -0.041074 0.102774 0.318637
v 0.020627 0.102774 -0.812243
v 0.020627 0.102774 -0.380337
v 0.041074 0.102774 0.318637
v 0.041074 0.102774 -0.380337
v -0.061701 0.102774 -0.894390
v 0.000000 0.102774 -0.812243
v -0.061701 0.102774 -0.812243
v 0.000000 0.102774 -0.894390
v -0.041074 0.102774 -0.729915
v -0.020627 0.102774 -0.894390
v -0.020627 0.102774 -0.915017
v -0.041074 0.102774 0.359891
v -0.041074 0.082328 0.359891
v 0.000000 0.082328 0.359891
v 0.000000 0.082328 0.318637
v 0.000000 0.102774 0.359891
v 0.000000 0.102774 0.318637
v 0.000000 0.082328 0.339264
v 0.041074 0.082328 0.339264
v 0.020627 0.082328 0.339264
v 0.020627 0.082328 0.359891
v 0.041074 0.082328 0.359891
v 0.041074 0.102774 0.339264
v 0.000000 0.102774 0.339264
v 0.020627 0.102774 0.339264
v 0.041074 0.102774 0.359891
v 0.020627 0.102774 0.359891
v -0.082328 -0.000000 0.359891
v -0.082328 0.041073 0.359891
v -0.082328 0.041073 0.400965
v -0.082328 -0.000000 0.400965
v 0.082328 -0.000000 0.400965
v 0.082328 -0.000000 0.359891
v 0.082328 0.082328 0.359891
v -0.082328 0.082328 0.359891
v -0.082328 0.102774 0.359891
v 0.082328 0.185102 0.359891
v -0.082328 0.185102 0.359891
v 0.082328 0.102774 0.359891
v 0.082328 0.041073 0.359891
v 0.102774 0.143848 0.359891
v 0.082328 0.143848 0.359891
v 0.102774 0.041073 0.359891
v -0.102774 0.041073 0.359891
v -0.082328 0.143848 0.359891
v -0.102774 0.143848 0.359891
v 0.082328 0.041073 0.400965
v -0.102774 0.143848 0.400965
v -0.102774 0.041073 0.400965
v 0.102774 0.143848 0.400965
v 0.102774 0.041073 0.400965
v 0.041074 0.061701 0.853317
v 0.041074 0.123401 0.915017
v 0.041074 0.123401 0.853317
v 0.041074 0.061701 0.915017
v -0.041074 0.123401 0.853317
v -0.041074 0.123401 0.915017
v -0.041074 0.061701 0.915017
v -0.061701 0.082328 0.915017
v -0.061701 0.102774 0.915017
v -0.041074 0.102774 0.915017
v -0.041074 0.082328 0.915017
v -0.041074 0.102774 0.853317
v -0.082328 0.143848 0.400965
v 0.082328 0.143848 0.400965
v -0.082328 0.185102 0.400965
v 0.082328 0.185102 0.400965
v -0.082328 0.061701 0.400965
v 0.082328 0.061701 0.400965
v -0.082328 0.123402 0.400965
v 0.082328 0.123402 0.400965
v 0.041074 0.061701 0.400965
v 0.041074 0.123402 0.400965
v 0.102774 0.123402 0.400965
v 0.102774 0.061701 0.400965
v -0.102774 0.061701 0.400965
v -0.102774 0.123402 0.400965
v -0.061701 0.123402 0.400965
v -0.061701 0.061701 0.400965
v -0.061701 0.082328 0.400965
v -0.041074 0.082328 0.400965
v -0.041074 0.061701 0.400965
v -0.061701 0.102774 0.400965
v -0.041074 0.123402 0.400965
v -0.041074 0.102774 0.400965
v -0.061701 0.082328 0.853317
v -0.061701 0.102774 0.853317
v -0.041074 0.082328 0.853317
v -0.041074 0.061701 0.853317
v -0.041074 0.082328 0.421592
v -0.041074 0.061701 0.421592
v 0.041074 0.061701 0.421592
v 0.041074 0.123402 0.421592
v -0.061701 0.102774 0.421592
v -0.061701 0.082328 0.421592
v -0.041074 0.102774 0.421592
v -0.041074 0.123402 0.421592
vt 0.250000 0.250000
vt 0.250000 0.250000
vt 0.250000 0.250000
vt 0.250000 0.250000
vt 0.250000 0.250000
vt 0.250000 0.250000
vt 0.250000 0.250000
vt 0.250000 0.250000
vt 0.250000 0.250000
vt 0.250000 0.250000
vt 0.250000 0.250000
vt 0.250000 0.250000
vt 0.250000 0.250000
vt 0.250000 0.250000
vt 0.250000 0.250000
vt 0.250000 0.250000
vt 0.250000 0.250000
vt 0.250000 0.250000
vt 0.250000 0.250000
vt 0.250000 0.250000
vt 0.250000 0.250000
vt 0.250000 0.250000
vt 0.250000 0.250000
vt 0.250000 0.250000
vt 0.250000 0.250000
vt 0.250000 0.250000
vt 0.250000 0.250000
vt 0.250000 0.250000
vt 0.250000 0.250000
vt 0.250000 0.250000
vt 0.250000 0.250000
vt 0.250000 0.250000
vt 0.250000 0.750000
vt 0.250000 0.750000
vt 0.250000 0.750000
vt 0.250000 0.750000
vt 0.250000 0.750000
vt 0.250000 0.750000
vt 0.250000 0.750000
vt 0.250000 0.750000
vt 0.250000 0.750000
vt 0.250000 0.750000
vt 0.250000 0.750000
vt 0.250000 0.750000
vt 0.250000 0.750000
vt 0.250000 0.750000
vt 0.250000 0.750000
vt 0.250000 0.750000
vt 0.250000 0.750000
vt 0.250000 0.750000
vt 0.250000 0.750000
vt 0.250000 0.750000
vt 0.250000 0.250000
vt 0.250000 0.250000
vt 0.250000 0.250000
vt 0.250000 0.250000
vt 0.250000 0.250000
vt 0.250000 0.250000
vt 0.250000 0.250000
vt 0.250000 0.250000
vt 0.250000 0.750000
vt 0.250000 0.750000
vt 0.250000 0.750000
vt 0.250000 0.750000
vt 0.250000 0.750000
vt 0.250000 0.750000
vt 0.250000 0.750000
vt 0.250000 0.750000
vt 0.250000 0.750000
vt 0.250000 0.750000
vt 0.250000 0.750000
vt 0.250000 0.750000
vt 0.250000 0.750000
vt 0.250000 0.750000
vt 0.250000 0.750000
vt 0.250000 0.750000
vt 0.250000 0.750000
vt 0.250000 0.750000
vt 0.250000 0.750000
vt 0.250000 0.750000
vt 0.250000 0.750000
vt 0.250000 0.750000
vt 0.250000 0.750000
vt 0.250000 0.750000
vt 0.250000 0.750000
vt 0.250000 0.750000
vt 0.250000 0.750000
vt 0.250000 0.750000
vt 0.250000 0.750000
vt 0.250000 0.750000
vt 0.250000 0.750000
vt 0.250000 0.750000
vt 0.250000 0.750000
vt 0.250000 0.750000
vt 0.250000 0.750000
vt 0.250000 0.750000
vt 0.250000 0.750000
vt 0.250000 0.750000
vt 0.250000 0.750000
vt 0.250000 0.750000
vt 0.250000 0.750000
vt 0.250000 0.750000
vt 0.250000 0.750000
vt 0.250000 0.750000
vt 0.250000 0.750000
vt 0.250000 0.750000
vt 0.250000 0.750000
vt 0.250000 0.750000
vt 0.250000 0.750000
vt 0.250000 0.750000
vt 0.250000 0.750000
vt 0.250000 0.750000
vt 0.250000 0.750000
vt 0.250000 0.750000
vt 0.250000 0.750000
vt 0.250000 0.750000
vt 0.250000 0.750000
vt 0.250000 0.750000
vt 0.250000 0.750000
vt 0.250000 0.750000
vt 0.250000 0.750000
vt 0.250000 0.750000
vt 0.250000 0.750000
vt 0.250000 0.750000
vt 0.250000 0.750000
vt 0.250000 0.750000
vt 0.250000 0.750000
vt 0.250000 0.750000
vt 0.250000 0.750000
vt 0.250000 0.750000
vt 0.750000 0.750000
vt 0.750000 0.750000
vt 0.750000 0.750000
vt 0.750000 0.750000
vt 0.750000 0.750000
vt 0.750000 0.750000
vt 0.750000 0.750000
vt 0.750000 0.750000
vn 1.0000 0.0000 0.0000
vn 0.0000 1.0000 0.0000
vn 0.0000 -1.0000 -0.0000
vn 0.0000 0.0000 1.0000
vn -1.0000 0.0000 0.0000
vn 0.0000 0.0000 -1.0000
usemtl Default_OBJ.025
s off
f 1/1/1 2/2/1 3/3/1
f 1/1/1 3/3/1 4/4/1
f 5/5/2 6/6/2 7/7/2
f 5/5/2 7/7/2 8/8/2
f 9/9/2 7/7/2 10/10/2
f 9/9/2 10/10/2 11/11/2
f 12/12/2 13/13/2 14/14/2
f 12/12/2 14/14/2 15/15/2
f 13/13/2 4/4/2 16/16/2
f 13/13/2 16/16/2 5/5/2
f 1/1/2 12/12/2 17/17/2
f 1/1/2 17/17/2 18/18/2
f 19/19/3 20/20/3 21/21/3
f 19/19/3 22/22/3 20/20/3
f 23/23/3 24/24/3 20/20/3
f 23/23/3 25/25/3 24/24/3
f 26/26/3 27/27/3 28/28/3
f 26/26/3 29/29/3 27/27/3
f 28/28/3 30/30/3 3/3/3
f 28/28/3 19/19/3 30/30/3
f 2/2/3 31/31/3 26/26/3
f 2/2/3 32/32/3 31/31/3
f 1/1/4 32/32/4 2/2/4
f 1/1/4 18/18/4 32/32/4
f 18/18/5 31/31/5 32/32/5
f 18/18/5 17/17/5 31/31/5
f 15/15/5 27/27/5 29/29/5
f 15/15/5 14/14/5 27/27/5
f 17/17/4 29/29/4 31/31/4
f 17/17/4 15/15/4 29/29/4
f 8/8/5 23/23/5 22/22/5
f 8/8/5 9/9/5 23/23/5
f 14/14/4 22/22/4 27/27/4
f 14/14/4 8/8/4 22/22/4
f 4/4/6 3/3/6 30/30/6
f 4/4/6 30/30/6 16/16/6
f 16/16/1 30/30/1 21/21/1
f 16/16/1 21/21/1 6/6/1
f 11/11/5 24/24/5 25/25/5
f 11/11/5 10/10/5 24/24/5
f 9/9/4 25/25/4 23/23/4
f 9/9/4 11/11/4 25/25/4
f 6/33/1 21/34/1 33/35/1
f 6/33/1 33/35/1 34/36/1
f 6/33/2 34/36/2 35/37/2
f 6/33/2 35/37/2 36/38/2
f 21/34/3 37/39/3 33/35/3
f 21/34/3 38/40/3 37/39/3
f 36/38/2 39/41/2 40/42/2
f 36/38/2 40/42/2 10/43/2
f 41/44/2 42/45/2 43/46/2
f 41/44/2 43/46/2 40/42/2
f 38/40/3 44/47/3 45/48/3
f 38/40/3 24/49/3 44/47/3
f 46/50/3 47/51/3 48/52/3
f 46/50/3 44/47/3 47/51/3
f 10/43/5 47/51/5 24/49/5
f 10/43/5 43/46/5 47/51/5
f 39/53/2 35/54/2 42/55/2
f 39/53/2 42/55/2 41/56/2
f 45/57/3 48/58/3 37/59/3
f 45/57/3 46/60/3 48/58/3
f 49/61/1 50/62/1 51/63/1
f 49/61/1 51/63/1 52/64/1
f 49/61/2 52/64/2 53/65/2
f 49/61/2 53/65/2 54/66/2
f 49/61/4 55/67/4 56/68/4
f 49/61/4 54/66/4 55/67/4
f 57/69/4 58/70/4 59/71/4
f 57/69/4 60/72/4 58/70/4
f 61/73/4 62/74/4 63/75/4
f 61/73/4 64/76/4 62/74/4
f 65/77/4 66/78/4 67/79/4
f 65/77/4 50/62/4 66/78/4
f 43/46/4 60/72/4 47/51/4
f 43/46/4 55/67/4 60/72/4
f 56/68/4 33/35/4 57/69/4
f 56/68/4 34/36/4 33/35/4
f 54/66/5 68/80/5 61/73/5
f 54/66/5 53/65/5 68/80/5
f 65/77/1 67/79/1 69/81/1
f 65/77/1 69/81/1 70/82/1
f 65/77/2 70/82/2 51/63/2
f 65/77/2 51/63/2 50/62/2
f 64/76/5 71/83/5 62/74/5
f 64/76/5 72/84/5 71/83/5
f 61/73/2 68/80/2 72/84/2
f 61/73/2 72/84/2 64/76/2
f 73/85/5 74/86/5 75/87/5
f 73/85/5 76/88/5 74/86/5
f 77/89/3 74/86/3 78/90/3
f 77/89/3 75/87/3 74/86/3
f 79/91/6 78/90/6 74/86/6
f 79/91/6 74/86/6 76/88/6
f 80/92/6 81/93/6 82/94/6
f 80/92/6 82/94/6 83/95/6
f 84/96/1 77/89/1 78/90/1
f 84/96/1 78/90/1 82/94/1
f 67/79/3 85/97/3 69/81/3
f 67/79/3 66/78/3 85/97/3
f 63/75/3 71/83/3 86/98/3
f 63/75/3 62/74/3 71/83/3
f 66/78/1 59/71/1 87/99/1
f 66/78/1 87/99/1 85/97/1
f 63/75/5 88/100/5 58/70/5
f 63/75/5 86/98/5 88/100/5
f 59/71/3 88/100/3 87/99/3
f 59/71/3 58/70/3 88/100/3
f 52/64/6 89/101/6 90/102/6
f 52/64/6 90/102/6 53/65/6
f 91/103/6 87/99/6 88/100/6
f 91/103/6 88/100/6 92/104/6
f 93/105/6 94/106/6 95/107/6
f 93/105/6 95/107/6 96/108/6
f 97/109/6 98/110/6 99/111/6
f 97/109/6 99/111/6 100/112/6
f 100/112/6 101/113/6 102/114/6
f 100/112/6 102/114/6 103/115/6
f 70/82/6 97/109/6 89/101/6
f 70/82/6 89/101/6 51/63/6
f 98/110/6 69/81/6 85/97/6
f 98/110/6 85/97/6 91/103/6
f 68/80/6 90/102/6 96/108/6
f 68/80/6 96/108/6 72/84/6
f 92/104/6 86/98/6 71/83/6
f 92/104/6 71/83/6 95/107/6
f 104/116/6 99/111/6 105/117/6
f 104/116/6 105/117/6 106/118/6
f 107/119/1 108/120/1 81/93/1
f 107/119/1 81/93/1 80/92/1
f 107/119/2 80/92/2 83/95/2
f 107/119/2 83/95/2 109/121/2
f 108/120/3 82/94/3 81/93/3
f 108/120/3 84/96/3 82/94/3
f 110/122/2 79/91/2 76/88/2
f 110/122/2 76/88/2 73/85/2
f 110/122/1 109/121/1 83/95/1
f 110/122/1 83/95/1 79/91/1
f 103/115/1 102/114/1 111/123/1
f 103/115/1 111/123/1 112/124/1
f 103/115/2 112/124/2 113/125/2
f 103/115/2 113/125/2 93/105/2
f 93/105/5 114/126/5 94/106/5
f 93/105/5 113/125/5 114/126/5
f 101/113/1 104/116/1 115/127/1
f 101/113/1 115/127/1 116/128/1
f 101/113/2 116/128/2 111/123/2
f 101/113/2 111/123/2 102/114/2
f 104/116/3 117/129/3 115/127/3
f 104/116/3 106/118/3 117/129/3
f 116/128/6 115/127/6 117/129/6
f 116/128/6 117/129/6 111/123/6
f 106/118/1 105/117/1 118/130/1
f 106/118/1 118/130/1 117/129/1
f 105/117/3 114/126/3 118/130/3
f 105/117/3 94/106/3 114/126/3
f 112/131/1 118/132/1 77/133/1
f 112/131/1 77/133/1 110/134/1
f 112/131/2 110/134/2 73/135/2
f 112/131/2 73/135/2 113/136/2
f 113/136/5 75/137/5 114/138/5
f 113/136/5 73/135/5 75/137/5
f 118/132/3 75/137/3 77/133/3
f 118/132/3 114/138/3 75/137/3
f 107/119/4 84/96/4 108/120/4
f 107/119/4 109/121/4 84/96/4
