# Blender v3.0.1 OBJ File: 'FatalProject.blend'
# www.blender.org
mtllib RudyTisa.mtl
o Cube.035
v 0.359099 0.673613 0.359098
v -0.359099 -0.673613 0.359099
v 0.359098 -0.673613 0.359098
v -0.359098 0.673613 0.359099
v -0.359099 -0.673613 -0.359098
v -0.359098 0.673613 -0.359098
v 0.359098 -0.673613 -0.359099
v 0.359099 0.673613 -0.359099
v 0.268473 1.214467 0.268473
v -0.268473 0.677521 0.268473
v 0.268473 0.677521 0.268473
v -0.268473 1.214467 0.268473
v -0.268473 0.677521 -0.268473
v -0.268473 1.214467 -0.268473
v 0.268473 0.677521 -0.268473
v 0.268473 1.214467 -0.268473
v 0.153981 0.555448 -0.331853
v -0.153981 -0.203622 -0.331853
v 0.153981 -0.203622 -0.331853
v -0.153981 0.555448 -0.331853
v -0.153981 -0.203622 -0.583175
v -0.153981 0.555448 -0.583175
v 0.153981 -0.203622 -0.583175
v 0.153981 0.555448 -0.583175
v -0.153981 -0.203622 0.331853
v 0.153982 0.555448 0.331853
v 0.153981 -0.203622 0.331853
v -0.153981 -0.203622 0.583175
v -0.153981 0.555448 0.331853
v 0.153981 -0.203622 0.583175
v -0.153981 0.555448 0.583175
v 0.153982 0.555448 0.583175
v 0.221555 -0.674499 -0.073880
v -0.127245 -1.433569 -0.073880
v 0.221555 -1.433569 -0.073880
v -0.127245 -0.674499 -0.073880
v -0.127245 -1.433569 -0.325202
v -0.127245 -0.674499 -0.325202
v 0.221555 -1.433569 -0.325202
v 0.221555 -0.674499 -0.325202
v -0.127245 -1.433569 0.073880
v 0.221555 -0.674499 0.073880
v 0.221555 -1.433569 0.073880
v -0.127245 -1.433569 0.325202
v -0.127245 -0.674499 0.073880
v 0.221555 -1.433569 0.325202
v -0.127245 -0.674499 0.325202
v 0.221555 -0.674499 0.325202
vt 0.614618 0.591331
vt 0.642568 0.355095
vt 0.614618 0.355095
vt 0.759329 0.631726
vt 0.590634 0.331875
vt 0.759329 0.331875
vt 0.709884 0.595399
vt 0.743805 0.345399
vt 0.709884 0.345399
vt 0.307846 0.629261
vt 0.149646 0.328944
vt 0.308324 0.327261
vt 0.498195 0.662775
vt 0.393438 0.767532
vt 0.393438 0.662775
vt 0.755426 0.491614
vt 0.705798 0.541242
vt 0.705798 0.491614
vt 0.898780 0.777682
vt 0.755401 0.633399
vt 0.898780 0.633399
vt 0.753756 0.780304
vt 0.594112 0.633311
vt 0.753756 0.635118
vt 0.594867 0.779502
vt 0.437662 0.634947
vt 0.594867 0.634947
vt 0.729746 0.781693
vt 0.606380 0.905058
vt 0.606380 0.781693
vt 0.375000 0.500000
vt 0.125000 0.750000
vt 0.125000 0.500000
vt 0.737688 0.780075
vt 0.610513 0.907250
vt 0.610513 0.780075
vt 0.625000 0.000000
vt 0.375000 0.250000
vt 0.375000 0.000000
vt 0.606261 0.611321
vt 0.625052 0.688046
vt 0.606261 0.688046
vt 0.596526 0.620930
vt 0.649102 0.660857
vt 0.596526 0.660857
vt 0.729542 0.610212
vt 0.751155 0.698848
vt 0.729542 0.698848
vt 0.350013 0.669558
vt 0.316243 0.703327
vt 0.316243 0.669558
vt 0.755109 0.519137
vt 0.709993 0.593210
vt 0.709993 0.519137
vt 0.375000 0.250000
vt 0.625000 0.000000
vt 0.375000 0.000000
vt 0.303289 0.718747
vt 0.277935 0.599316
vt 0.277935 0.718747
vt 0.305103 0.703303
vt 0.277880 0.604232
vt 0.277880 0.703303
vt 0.307006 0.693423
vt 0.268314 0.611307
vt 0.268314 0.693423
vt 0.149252 0.678762
vt 0.191720 0.636294
vt 0.149252 0.636294
vt 0.754355 0.457788
vt 0.701054 0.511089
vt 0.754355 0.511089
vt 0.294895 0.342060
vt 0.255763 0.207136
vt 0.294895 0.207136
vt 0.648089 0.341636
vt 0.606719 0.217212
vt 0.648089 0.217212
vt 0.742885 0.338697
vt 0.699756 0.216005
vt 0.742885 0.216005
vt 0.295663 0.336622
vt 0.253982 0.214245
vt 0.295663 0.214245
vt 0.407602 0.691482
vt 0.448403 0.650681
vt 0.448403 0.691482
vt 0.875000 0.500000
vt 0.625000 0.750000
vt 0.625000 0.500000
vt 0.252489 0.219191
vt 0.291593 0.340964
vt 0.291593 0.219191
vt 0.161566 0.208809
vt 0.198890 0.342725
vt 0.198890 0.208809
vt 0.255879 0.217629
vt 0.295947 0.338623
vt 0.295947 0.217629
vt 0.257618 0.222419
vt 0.297261 0.336886
vt 0.297261 0.222419
vt 0.383791 0.703547
vt 0.434264 0.653074
vt 0.383791 0.653074
vt 0.625000 0.750000
vt 0.875000 0.500000
vt 0.625000 0.500000
vt 0.642568 0.591331
vt 0.590634 0.631726
vt 0.743805 0.595399
vt 0.148406 0.630951
vt 0.498195 0.767532
vt 0.755426 0.541242
vt 0.755401 0.777682
vt 0.595919 0.780304
vt 0.437662 0.779502
vt 0.729746 0.905058
vt 0.375000 0.750000
vt 0.737688 0.907250
vt 0.625000 0.250000
vt 0.625052 0.611321
vt 0.649102 0.620930
vt 0.751155 0.610212
vt 0.350013 0.703327
vt 0.755109 0.593210
vt 0.625000 0.250000
vt 0.303289 0.599316
vt 0.305103 0.604232
vt 0.307006 0.611307
vt 0.191720 0.678762
vt 0.701054 0.457788
vt 0.255763 0.342060
vt 0.606719 0.341636
vt 0.699756 0.338697
vt 0.253982 0.336622
vt 0.407602 0.650681
vt 0.875000 0.750000
vt 0.252489 0.340964
vt 0.161566 0.342725
vt 0.255879 0.338623
vt 0.257618 0.336886
vt 0.434264 0.703547
vt 0.875000 0.750000
vn 0.0000 -0.0000 1.0000
vn -1.0000 0.0000 0.0000
vn -0.0000 0.0000 -1.0000
vn 1.0000 -0.0000 -0.0000
vn -0.0000 -1.0000 -0.0000
vn 0.0000 1.0000 -0.0000
usemtl Material.012
s 1
f 1/1/1 2/2/1 3/3/1
f 4/4/2 5/5/2 2/6/2
f 6/7/3 7/8/3 5/9/3
f 8/10/4 3/11/4 7/12/4
f 5/13/5 3/14/5 2/15/5
f 4/16/6 8/17/6 6/18/6
f 9/19/1 10/20/1 11/21/1
f 12/22/2 13/23/2 10/24/2
f 14/25/3 15/26/3 13/27/3
f 16/28/4 11/29/4 15/30/4
f 13/31/5 11/32/5 10/33/5
f 12/34/6 16/35/6 14/36/6
f 17/37/1 18/38/1 19/39/1
f 20/40/2 21/41/2 18/42/2
f 22/43/3 23/44/3 21/45/3
f 24/46/4 19/47/4 23/48/4
f 21/49/5 19/50/5 18/51/5
f 20/52/6 24/53/6 22/54/6
f 25/55/3 26/56/3 27/57/3
f 28/58/2 29/59/2 25/60/2
f 30/61/1 31/62/1 28/63/1
f 27/64/4 32/65/4 30/66/4
f 27/67/5 28/68/5 25/69/5
f 32/70/6 29/71/6 31/72/6
f 33/73/1 34/74/1 35/75/1
f 36/76/2 37/77/2 34/78/2
f 38/79/3 39/80/3 37/81/3
f 40/82/4 35/83/4 39/84/4
f 37/85/5 35/86/5 34/87/5
f 36/88/6 40/89/6 38/90/6
f 41/91/3 42/92/3 43/93/3
f 44/94/2 45/95/2 41/96/2
f 46/97/1 47/98/1 44/99/1
f 43/100/4 48/101/4 46/102/4
f 43/103/5 44/104/5 41/105/5
f 48/106/6 45/107/6 47/108/6
f 1/1/1 4/109/1 2/2/1
f 4/4/2 6/110/2 5/5/2
f 6/7/3 8/111/3 7/8/3
f 8/10/4 1/112/4 3/11/4
f 5/13/5 7/113/5 3/14/5
f 4/16/6 1/114/6 8/17/6
f 9/19/1 12/115/1 10/20/1
f 12/22/2 14/116/2 13/23/2
f 14/25/3 16/117/3 15/26/3
f 16/28/4 9/118/4 11/29/4
f 13/31/5 15/119/5 11/32/5
f 12/34/6 9/120/6 16/35/6
f 17/37/1 20/121/1 18/38/1
f 20/40/2 22/122/2 21/41/2
f 22/43/3 24/123/3 23/44/3
f 24/46/4 17/124/4 19/47/4
f 21/49/5 23/125/5 19/50/5
f 20/52/6 17/126/6 24/53/6
f 25/55/3 29/127/3 26/56/3
f 28/58/2 31/128/2 29/59/2
f 30/61/1 32/129/1 31/62/1
f 27/64/4 26/130/4 32/65/4
f 27/67/5 30/131/5 28/68/5
f 32/70/6 26/132/6 29/71/6
f 33/73/1 36/133/1 34/74/1
f 36/76/2 38/134/2 37/77/2
f 38/79/3 40/135/3 39/80/3
f 40/82/4 33/136/4 35/83/4
f 37/85/5 39/137/5 35/86/5
f 36/88/6 33/138/6 40/89/6
f 41/91/3 45/139/3 42/92/3
f 44/94/2 47/140/2 45/95/2
f 46/97/1 48/141/1 47/98/1
f 43/100/4 42/142/4 48/101/4
f 43/103/5 46/143/5 44/104/5
f 48/106/6 42/144/6 45/107/6
