# Blender v3.0.1 OBJ File: 'FatalProject.blend'
# www.blender.org
mtllib WallsPasillo.mtl
o Cube.029_Cube.026
v -1.837824 -1.604211 2.641615
v -1.837824 1.604211 2.641615
v -8.292485 -1.604211 2.641615
v -8.292485 1.604211 2.641615
v -1.837824 -1.604211 2.172717
v -1.837824 1.604211 2.172717
v -8.292485 -1.604211 2.172718
v -8.292485 1.604211 2.172718
v 4.563041 -1.604211 2.641614
v 4.563041 1.604211 2.641614
v -1.891621 -1.604211 2.641615
v -1.891621 1.604212 2.641615
v 4.563041 -1.604211 2.172717
v 4.563041 1.604211 2.172717
v -1.891621 -1.604211 2.172717
v -1.891621 1.604212 2.172717
v 4.552098 -1.604211 2.337905
v 4.552098 1.604211 2.337905
v 4.552100 -1.604211 7.913234
v 4.552100 1.604212 7.913234
v 4.083200 -1.604211 2.337905
v 4.083200 1.604211 2.337905
v 4.083202 -1.604211 7.913234
v 4.083202 1.604212 7.913234
v 4.552094 -1.604211 -8.001225
v 4.552094 1.604211 -8.001225
v 4.552096 -1.604211 -2.425897
v 4.552096 1.604211 -2.425897
v 4.083197 -1.604211 -8.001225
v 4.083197 1.604211 -8.001225
v 4.083199 -1.604211 -2.425897
v 4.083199 1.604211 -2.425897
v -1.837823 -1.604211 -2.134722
v -1.837823 1.604211 -2.134722
v -8.292486 -1.604211 -2.134722
v -8.292486 1.604211 -2.134722
v -1.837823 -1.604211 -2.603619
v -1.837823 1.604211 -2.603619
v -8.292486 -1.604211 -2.603619
v -8.292486 1.604211 -2.603619
v 4.563038 -1.604211 -2.134722
v 4.563038 1.604211 -2.134722
v -1.891624 -1.604211 -2.134722
v -1.891624 1.604211 -2.134722
v 4.563038 -1.604211 -2.603619
v 4.563038 1.604211 -2.603619
v -1.891624 -1.604211 -2.603619
v -1.891624 1.604211 -2.603619
vt 0.982736 0.200594
vt 0.569896 0.200594
vt 0.725963 0.000990
vt 0.826670 0.400198
vt 0.413830 0.400198
vt 0.670603 0.599802
vt 0.257763 0.599802
vt 0.514537 0.799406
vt 0.101697 0.799406
vt 0.000990 0.400198
vt 0.157056 0.200594
vt 0.927377 0.799406
vt 0.982736 0.200594
vt 0.569896 0.200594
vt 0.725963 0.000990
vt 0.826670 0.400198
vt 0.413830 0.400198
vt 0.670603 0.599802
vt 0.257763 0.599802
vt 0.514537 0.799406
vt 0.101697 0.799406
vt 0.000990 0.400198
vt 0.157056 0.200594
vt 0.927377 0.799406
vt 0.982736 0.200594
vt 0.569896 0.200594
vt 0.725963 0.000990
vt 0.826670 0.400198
vt 0.413830 0.400198
vt 0.670603 0.599802
vt 0.257763 0.599802
vt 0.514537 0.799406
vt 0.101697 0.799406
vt 0.000990 0.400198
vt 0.157056 0.200594
vt 0.771310 0.999010
vt 0.982736 0.200594
vt 0.569896 0.200594
vt 0.725963 0.000990
vt 0.826670 0.400198
vt 0.413830 0.400198
vt 0.670603 0.599802
vt 0.257763 0.599802
vt 0.514537 0.799406
vt 0.101697 0.799406
vt 0.000990 0.400198
vt 0.157056 0.200594
vt 0.927377 0.799406
vt 0.982736 0.200594
vt 0.569896 0.200594
vt 0.725963 0.000990
vt 0.826670 0.400198
vt 0.413830 0.400198
vt 0.670603 0.599802
vt 0.257763 0.599802
vt 0.514537 0.799406
vt 0.101697 0.799406
vt 0.000990 0.400198
vt 0.157056 0.200594
vt 0.927377 0.799406
vt 0.982736 0.200594
vt 0.569896 0.200594
vt 0.725963 0.000990
vt 0.826670 0.400198
vt 0.413830 0.400198
vt 0.670603 0.599802
vt 0.257763 0.599802
vt 0.514537 0.799406
vt 0.101697 0.799406
vt 0.000990 0.400198
vt 0.157056 0.200594
vt 0.927377 0.799406
vt 0.358470 0.999010
vt 0.771310 0.999010
vt 0.358470 0.999010
vt 0.771310 0.999010
vt 0.358470 0.999010
vt 0.927377 0.799406
vt 0.358470 0.999010
vt 0.771310 0.999010
vt 0.358470 0.999010
vt 0.771310 0.999010
vt 0.358470 0.999010
vt 0.771310 0.999010
vn 0.0000 0.0000 1.0000
vn -1.0000 0.0000 0.0000
vn -0.0000 0.0000 -1.0000
vn 1.0000 0.0000 0.0000
vn 0.0000 -1.0000 0.0000
vn 0.0000 1.0000 0.0000
usemtl Material.007
s off
f 2/1/1 3/2/1 1/3/1
f 4/4/2 7/5/2 3/2/2
f 8/6/3 5/7/3 7/5/3
f 6/8/4 1/9/4 5/7/4
f 7/5/5 1/10/5 3/11/5
f 4/12/6 6/8/6 8/6/6
f 10/13/1 11/14/1 9/15/1
f 12/16/2 15/17/2 11/14/2
f 16/18/3 13/19/3 15/17/3
f 14/20/4 9/21/4 13/19/4
f 15/17/5 9/22/5 11/23/5
f 12/24/6 14/20/6 16/18/6
f 18/25/4 19/26/4 17/27/4
f 20/28/1 23/29/1 19/26/1
f 24/30/2 21/31/2 23/29/2
f 22/32/3 17/33/3 21/31/3
f 23/29/5 17/34/5 19/35/5
f 24/30/6 18/36/6 22/32/6
f 26/37/4 27/38/4 25/39/4
f 28/40/1 31/41/1 27/38/1
f 32/42/2 29/43/2 31/41/2
f 30/44/3 25/45/3 29/43/3
f 31/41/5 25/46/5 27/47/5
f 28/48/6 30/44/6 32/42/6
f 34/49/1 35/50/1 33/51/1
f 36/52/2 39/53/2 35/50/2
f 40/54/3 37/55/3 39/53/3
f 38/56/4 33/57/4 37/55/4
f 39/53/5 33/58/5 35/59/5
f 36/60/6 38/56/6 40/54/6
f 42/61/1 43/62/1 41/63/1
f 44/64/2 47/65/2 43/62/2
f 48/66/3 45/67/3 47/65/3
f 46/68/4 41/69/4 45/67/4
f 47/65/5 41/70/5 43/71/5
f 44/72/6 46/68/6 48/66/6
f 2/1/1 4/4/1 3/2/1
f 4/4/2 8/6/2 7/5/2
f 8/6/3 6/8/3 5/7/3
f 6/8/4 2/73/4 1/9/4
f 7/5/5 5/7/5 1/10/5
f 4/12/6 2/74/6 6/8/6
f 10/13/1 12/16/1 11/14/1
f 12/16/2 16/18/2 15/17/2
f 16/18/3 14/20/3 13/19/3
f 14/20/4 10/75/4 9/21/4
f 15/17/5 13/19/5 9/22/5
f 12/24/6 10/76/6 14/20/6
f 18/25/4 20/28/4 19/26/4
f 20/28/1 24/30/1 23/29/1
f 24/30/2 22/32/2 21/31/2
f 22/32/3 18/77/3 17/33/3
f 23/29/5 21/31/5 17/34/5
f 24/30/6 20/78/6 18/36/6
f 26/37/4 28/40/4 27/38/4
f 28/40/1 32/42/1 31/41/1
f 32/42/2 30/44/2 29/43/2
f 30/44/3 26/79/3 25/45/3
f 31/41/5 29/43/5 25/46/5
f 28/48/6 26/80/6 30/44/6
f 34/49/1 36/52/1 35/50/1
f 36/52/2 40/54/2 39/53/2
f 40/54/3 38/56/3 37/55/3
f 38/56/4 34/81/4 33/57/4
f 39/53/5 37/55/5 33/58/5
f 36/60/6 34/82/6 38/56/6
f 42/61/1 44/64/1 43/62/1
f 44/64/2 48/66/2 47/65/2
f 48/66/3 46/68/3 45/67/3
f 46/68/4 42/83/4 41/69/4
f 47/65/5 45/67/5 41/70/5
f 44/72/6 42/84/6 46/68/6
